<svg width="317" height="45" viewBox="0 0 317 45" fill="none" xmlns="http://www.w3.org/2000/svg">
<mask id="path-1-outside-1_103_42" maskUnits="userSpaceOnUse" x="0" y="0" width="317" height="45" fill="black">
<rect fill="white" width="317" height="45"/>
<path d="M32.302 13.0391H21.6072L17.3032 37.3954H9.43428L13.7383 13.0391H3L4.2173 6.3023H33.5193L32.302 13.0391Z"/>
<path d="M49.7045 6.3023C53.0086 6.3023 55.3563 7.02204 56.7475 8.46154C57.7909 9.55556 58.3126 10.9375 58.3126 12.6073C58.3126 13.1831 58.2546 13.7877 58.1387 14.4211L57.53 17.7895C57.1822 19.6608 56.5736 21.1723 55.7041 22.3239C54.8636 23.4755 53.9216 24.296 52.8782 24.7854L56.8344 37.3954H48.0525L44.4006 25.7787H41.7052L39.9227 37.3954H31.5755L37.0968 6.3023H49.7045ZM46.9656 13.0391H43.705L42.5747 20.5533H45.6179C47.154 20.5533 48.2554 20.1934 48.922 19.4737C49.5886 18.7251 49.9219 17.7463 49.9219 16.5371C49.9219 14.2051 48.9365 13.0391 46.9656 13.0391Z"/>
<path d="M91.9064 38C87.7908 38 84.9504 37.0499 83.3853 35.1498C82.3129 33.8255 81.7768 32.0117 81.7768 29.7085C81.7768 28.6433 81.8927 27.4773 82.1245 26.2105L83.6462 17.5736C85.0084 9.85785 89.7616 6 97.9059 6C101.268 6 103.819 6.71975 105.557 8.15924C107.296 9.56995 108.166 11.5133 108.166 13.9892C108.166 14.9969 108.021 16.0189 107.731 17.0553C107.47 18.0918 107.21 18.8691 106.949 19.3873L106.514 20.1646H98.8189C99.5725 19.1282 99.9492 17.9334 99.9492 16.5803C99.9492 13.9892 98.8624 12.6937 96.6886 12.6937C93.7613 12.6937 92.0078 14.3779 91.4282 17.7463L89.95 26.0378C89.8051 26.8151 89.7326 27.578 89.7326 28.3266C89.7326 30.3131 90.9065 31.3063 93.2541 31.3063C95.6307 31.3063 97.1524 30.126 97.819 27.7652H94.254L95.1235 22.9717H106.644L105.949 26.6856L105.731 27.9379C104.514 34.646 99.9058 38 91.9064 38Z"/>
<path d="M120.14 38C116.024 38 113.184 37.0499 111.618 35.1498C110.546 33.8255 110.01 32.0117 110.01 29.7085C110.01 28.6433 110.126 27.4773 110.358 26.2105L111.879 17.5736C113.242 9.85785 117.995 6 126.139 6C129.501 6 132.052 6.71975 133.791 8.15924C135.53 9.56995 136.399 11.5133 136.399 13.9892C136.399 14.9969 136.254 16.0189 135.964 17.0553C135.704 18.0918 135.443 18.8691 135.182 19.3873L134.747 20.1646H127.052C127.806 19.1282 128.182 17.9334 128.182 16.5803C128.182 13.9892 127.096 12.6937 124.922 12.6937C121.994 12.6937 120.241 14.3779 119.661 17.7463L118.183 26.0378C118.038 26.8151 117.966 27.578 117.966 28.3266C117.966 30.3131 119.14 31.3063 121.487 31.3063C123.864 31.3063 125.386 30.126 126.052 27.7652H122.487L123.357 22.9717H134.878L134.182 26.6856L133.965 27.9379C132.747 34.646 128.139 38 120.14 38Z"/>
<path d="M159.285 37.3954H137.461L142.982 6.3023H164.806L163.589 13.0391H149.59L148.59 18.8691H160.154L158.937 25.6059H147.373L146.503 30.6586H160.502L159.285 37.3954Z"/>
<path d="M182.422 6.3023C185.726 6.3023 188.073 7.02204 189.465 8.46154C190.508 9.55556 191.03 10.9375 191.03 12.6073C191.03 13.1831 190.972 13.7877 190.856 14.4211L190.247 17.7895C189.899 19.6608 189.291 21.1723 188.421 22.3239C187.581 23.4755 186.639 24.296 185.595 24.7854L189.552 37.3954H180.77L177.118 25.7787H174.422L172.64 37.3954H164.293L169.814 6.3023H182.422ZM179.683 13.0391H176.422L175.292 20.5533H178.335C179.871 20.5533 180.973 20.1934 181.639 19.4737C182.306 18.7251 182.639 17.7463 182.639 16.5371C182.639 14.2051 181.654 13.0391 179.683 13.0391Z"/>
<path d="M203.735 38C199.62 38 196.779 37.0499 195.214 35.1498C194.142 33.8255 193.606 32.0117 193.606 29.7085C193.606 28.6433 193.722 27.4773 193.953 26.2105L195.475 17.5736C196.837 9.85785 201.59 6 209.735 6C213.097 6 215.647 6.71975 217.386 8.15924C219.125 9.56995 219.995 11.5133 219.995 13.9892C219.995 14.9969 219.85 16.0189 219.56 17.0553C219.299 18.0918 219.038 18.8691 218.778 19.3873L218.343 20.1646H210.648C211.401 19.1282 211.778 17.9334 211.778 16.5803C211.778 13.9892 210.691 12.6937 208.517 12.6937C205.59 12.6937 203.837 14.3779 203.257 17.7463L201.779 26.0378C201.634 26.8151 201.561 27.578 201.561 28.3266C201.561 30.3131 202.735 31.3063 205.083 31.3063C207.46 31.3063 208.981 30.126 209.648 27.7652H206.083L206.952 22.9717H218.473L217.778 26.6856L217.56 27.9379C216.343 34.646 211.735 38 203.735 38Z"/>
<path d="M239.185 6.3023C242.489 6.3023 244.837 7.02204 246.228 8.46154C247.272 9.55556 247.793 10.9375 247.793 12.6073C247.793 13.1831 247.735 13.7877 247.619 14.4211L247.011 17.7895C246.663 19.6608 246.054 21.1723 245.185 22.3239C244.344 23.4755 243.402 24.296 242.359 24.7854L246.315 37.3954H237.533L233.881 25.7787H231.186L229.403 37.3954H221.056L226.578 6.3023H239.185ZM236.446 13.0391H233.186L232.055 20.5533H235.099C236.635 20.5533 237.736 20.1934 238.403 19.4737C239.069 18.7251 239.403 17.7463 239.403 16.5371C239.403 14.2051 238.417 13.0391 236.446 13.0391Z"/>
<path d="M265.064 37.3954L265.324 30.6154H258.064L255.934 37.3954H247.63L258.803 6.3023H273.15L273.324 37.3954H265.064ZM263.281 13.8597L259.847 24.8286H265.542L266.02 13.8597H263.281Z"/>
<path d="M291.132 6.3023L295.784 21.2011L305.783 6.3023H314L308.479 37.3954H300.61L303.74 19.8624L297.045 30.3131H291.35L288.393 19.8624L285.263 37.3954H277.438L282.959 6.3023H291.132Z"/>
<path d="M61.0981 42.458C61.3 41.7863 62.8139 37.9627 64.4793 33.9324C66.0942 29.8504 67.4567 26.3885 67.4567 26.1818C67.4567 25.9234 65.4886 25.7684 63.1167 25.7684C59.1804 25.7684 58.7767 25.6651 59.0795 24.89C59.2309 24.3733 61.2495 18.9996 63.5709 13.0058L67.7091 2H74.9256C78.8619 2 82.0916 2.10334 82.0916 2.20668C82.0916 2.31002 80.3758 5.6686 78.3067 9.64723C76.2377 13.6259 74.5219 16.9844 74.5219 17.1395C74.5219 17.3461 76.4395 17.5528 78.7609 17.6045L83 17.7595L74.1181 28.1453C60.3411 44.1631 60.7449 43.6981 61.0981 42.458ZM74.4209 23.2366L77.146 20.0847H71.4939V18.4312C71.4939 17.4495 72.6546 14.5043 74.5219 10.939C76.1872 7.68375 77.5498 4.89355 77.5498 4.79021C77.5498 4.63519 75.733 4.58352 73.4621 4.68687L69.3744 4.84188L65.9932 13.8842L62.5616 22.9265L69.98 23.2366V25.3034C69.98 26.4401 69.7277 27.8869 69.4753 28.507C68.8698 29.6954 69.3744 29.1787 74.4209 23.2366Z"/>
<path d="M62.9149 39.6161C62.9149 39.4611 64.1765 36.2575 65.6905 32.4856C67.2044 28.7136 68.466 25.4584 68.466 25.2C68.466 24.9417 66.5484 24.735 64.1765 24.735C61.8046 24.735 59.887 24.6317 59.887 24.5283C59.887 24.425 61.7037 19.568 63.8737 13.8325L67.9109 3.29176L74.2191 3.13675C77.7012 3.08508 80.5777 3.13675 80.5777 3.29176C80.5777 3.49844 78.8619 6.96037 76.7423 11.0423L72.9574 18.4829L81.1328 18.7929L72.7556 28.6103C63.5205 39.4094 62.9149 40.0811 62.9149 39.6161Z"/>
</mask>
<path d="M32.302 13.0391H21.6072L17.3032 37.3954H9.43428L13.7383 13.0391H3L4.2173 6.3023H33.5193L32.302 13.0391Z" fill="#FFD62F"/>
<path d="M49.7045 6.3023C53.0086 6.3023 55.3563 7.02204 56.7475 8.46154C57.7909 9.55556 58.3126 10.9375 58.3126 12.6073C58.3126 13.1831 58.2546 13.7877 58.1387 14.4211L57.53 17.7895C57.1822 19.6608 56.5736 21.1723 55.7041 22.3239C54.8636 23.4755 53.9216 24.296 52.8782 24.7854L56.8344 37.3954H48.0525L44.4006 25.7787H41.7052L39.9227 37.3954H31.5755L37.0968 6.3023H49.7045ZM46.9656 13.0391H43.705L42.5747 20.5533H45.6179C47.154 20.5533 48.2554 20.1934 48.922 19.4737C49.5886 18.7251 49.9219 17.7463 49.9219 16.5371C49.9219 14.2051 48.9365 13.0391 46.9656 13.0391Z" fill="#FFD62F"/>
<path d="M91.9064 38C87.7908 38 84.9504 37.0499 83.3853 35.1498C82.3129 33.8255 81.7768 32.0117 81.7768 29.7085C81.7768 28.6433 81.8927 27.4773 82.1245 26.2105L83.6462 17.5736C85.0084 9.85785 89.7616 6 97.9059 6C101.268 6 103.819 6.71975 105.557 8.15924C107.296 9.56995 108.166 11.5133 108.166 13.9892C108.166 14.9969 108.021 16.0189 107.731 17.0553C107.47 18.0918 107.21 18.8691 106.949 19.3873L106.514 20.1646H98.8189C99.5725 19.1282 99.9492 17.9334 99.9492 16.5803C99.9492 13.9892 98.8624 12.6937 96.6886 12.6937C93.7613 12.6937 92.0078 14.3779 91.4282 17.7463L89.95 26.0378C89.8051 26.8151 89.7326 27.578 89.7326 28.3266C89.7326 30.3131 90.9065 31.3063 93.2541 31.3063C95.6307 31.3063 97.1524 30.126 97.819 27.7652H94.254L95.1235 22.9717H106.644L105.949 26.6856L105.731 27.9379C104.514 34.646 99.9058 38 91.9064 38Z" fill="#FFD62F"/>
<path d="M120.14 38C116.024 38 113.184 37.0499 111.618 35.1498C110.546 33.8255 110.01 32.0117 110.01 29.7085C110.01 28.6433 110.126 27.4773 110.358 26.2105L111.879 17.5736C113.242 9.85785 117.995 6 126.139 6C129.501 6 132.052 6.71975 133.791 8.15924C135.53 9.56995 136.399 11.5133 136.399 13.9892C136.399 14.9969 136.254 16.0189 135.964 17.0553C135.704 18.0918 135.443 18.8691 135.182 19.3873L134.747 20.1646H127.052C127.806 19.1282 128.182 17.9334 128.182 16.5803C128.182 13.9892 127.096 12.6937 124.922 12.6937C121.994 12.6937 120.241 14.3779 119.661 17.7463L118.183 26.0378C118.038 26.8151 117.966 27.578 117.966 28.3266C117.966 30.3131 119.14 31.3063 121.487 31.3063C123.864 31.3063 125.386 30.126 126.052 27.7652H122.487L123.357 22.9717H134.878L134.182 26.6856L133.965 27.9379C132.747 34.646 128.139 38 120.14 38Z" fill="#FFD62F"/>
<path d="M159.285 37.3954H137.461L142.982 6.3023H164.806L163.589 13.0391H149.59L148.59 18.8691H160.154L158.937 25.6059H147.373L146.503 30.6586H160.502L159.285 37.3954Z" fill="#FFD62F"/>
<path d="M182.422 6.3023C185.726 6.3023 188.073 7.02204 189.465 8.46154C190.508 9.55556 191.03 10.9375 191.03 12.6073C191.03 13.1831 190.972 13.7877 190.856 14.4211L190.247 17.7895C189.899 19.6608 189.291 21.1723 188.421 22.3239C187.581 23.4755 186.639 24.296 185.595 24.7854L189.552 37.3954H180.77L177.118 25.7787H174.422L172.64 37.3954H164.293L169.814 6.3023H182.422ZM179.683 13.0391H176.422L175.292 20.5533H178.335C179.871 20.5533 180.973 20.1934 181.639 19.4737C182.306 18.7251 182.639 17.7463 182.639 16.5371C182.639 14.2051 181.654 13.0391 179.683 13.0391Z" fill="#FFD62F"/>
<path d="M203.735 38C199.62 38 196.779 37.0499 195.214 35.1498C194.142 33.8255 193.606 32.0117 193.606 29.7085C193.606 28.6433 193.722 27.4773 193.953 26.2105L195.475 17.5736C196.837 9.85785 201.59 6 209.735 6C213.097 6 215.647 6.71975 217.386 8.15924C219.125 9.56995 219.995 11.5133 219.995 13.9892C219.995 14.9969 219.85 16.0189 219.56 17.0553C219.299 18.0918 219.038 18.8691 218.778 19.3873L218.343 20.1646H210.648C211.401 19.1282 211.778 17.9334 211.778 16.5803C211.778 13.9892 210.691 12.6937 208.517 12.6937C205.59 12.6937 203.837 14.3779 203.257 17.7463L201.779 26.0378C201.634 26.8151 201.561 27.578 201.561 28.3266C201.561 30.3131 202.735 31.3063 205.083 31.3063C207.46 31.3063 208.981 30.126 209.648 27.7652H206.083L206.952 22.9717H218.473L217.778 26.6856L217.56 27.9379C216.343 34.646 211.735 38 203.735 38Z" fill="#FFD62F"/>
<path d="M239.185 6.3023C242.489 6.3023 244.837 7.02204 246.228 8.46154C247.272 9.55556 247.793 10.9375 247.793 12.6073C247.793 13.1831 247.735 13.7877 247.619 14.4211L247.011 17.7895C246.663 19.6608 246.054 21.1723 245.185 22.3239C244.344 23.4755 243.402 24.296 242.359 24.7854L246.315 37.3954H237.533L233.881 25.7787H231.186L229.403 37.3954H221.056L226.578 6.3023H239.185ZM236.446 13.0391H233.186L232.055 20.5533H235.099C236.635 20.5533 237.736 20.1934 238.403 19.4737C239.069 18.7251 239.403 17.7463 239.403 16.5371C239.403 14.2051 238.417 13.0391 236.446 13.0391Z" fill="#FFD62F"/>
<path d="M265.064 37.3954L265.324 30.6154H258.064L255.934 37.3954H247.63L258.803 6.3023H273.15L273.324 37.3954H265.064ZM263.281 13.8597L259.847 24.8286H265.542L266.02 13.8597H263.281Z" fill="#FFD62F"/>
<path d="M291.132 6.3023L295.784 21.2011L305.783 6.3023H314L308.479 37.3954H300.61L303.74 19.8624L297.045 30.3131H291.35L288.393 19.8624L285.263 37.3954H277.438L282.959 6.3023H291.132Z" fill="#FFD62F"/>
<path d="M61.0981 42.458C61.3 41.7863 62.8139 37.9627 64.4793 33.9324C66.0942 29.8504 67.4567 26.3885 67.4567 26.1818C67.4567 25.9234 65.4886 25.7684 63.1167 25.7684C59.1804 25.7684 58.7767 25.6651 59.0795 24.89C59.2309 24.3733 61.2495 18.9996 63.5709 13.0058L67.7091 2H74.9256C78.8619 2 82.0916 2.10334 82.0916 2.20668C82.0916 2.31002 80.3758 5.6686 78.3067 9.64723C76.2377 13.6259 74.5219 16.9844 74.5219 17.1395C74.5219 17.3461 76.4395 17.5528 78.7609 17.6045L83 17.7595L74.1181 28.1453C60.3411 44.1631 60.7449 43.6981 61.0981 42.458ZM74.4209 23.2366L77.146 20.0847H71.4939V18.4312C71.4939 17.4495 72.6546 14.5043 74.5219 10.939C76.1872 7.68375 77.5498 4.89355 77.5498 4.79021C77.5498 4.63519 75.733 4.58352 73.4621 4.68687L69.3744 4.84188L65.9932 13.8842L62.5616 22.9265L69.98 23.2366V25.3034C69.98 26.4401 69.7277 27.8869 69.4753 28.507C68.8698 29.6954 69.3744 29.1787 74.4209 23.2366Z" fill="#FFD62F"/>
<path d="M62.9149 39.6161C62.9149 39.4611 64.1765 36.2575 65.6905 32.4856C67.2044 28.7136 68.466 25.4584 68.466 25.2C68.466 24.9417 66.5484 24.735 64.1765 24.735C61.8046 24.735 59.887 24.6317 59.887 24.5283C59.887 24.425 61.7037 19.568 63.8737 13.8325L67.9109 3.29176L74.2191 3.13675C77.7012 3.08508 80.5777 3.13675 80.5777 3.29176C80.5777 3.49844 78.8619 6.96037 76.7423 11.0423L72.9574 18.4829L81.1328 18.7929L72.7556 28.6103C63.5205 39.4094 62.9149 40.0811 62.9149 39.6161Z" fill="#FFD62F"/>
<path d="M32.302 13.0391H21.6072L17.3032 37.3954H9.43428L13.7383 13.0391H3L4.2173 6.3023H33.5193L32.302 13.0391Z" stroke="#FFA200" stroke-width="4" mask="url(#path-1-outside-1_103_42)"/>
<path d="M49.7045 6.3023C53.0086 6.3023 55.3563 7.02204 56.7475 8.46154C57.7909 9.55556 58.3126 10.9375 58.3126 12.6073C58.3126 13.1831 58.2546 13.7877 58.1387 14.4211L57.53 17.7895C57.1822 19.6608 56.5736 21.1723 55.7041 22.3239C54.8636 23.4755 53.9216 24.296 52.8782 24.7854L56.8344 37.3954H48.0525L44.4006 25.7787H41.7052L39.9227 37.3954H31.5755L37.0968 6.3023H49.7045ZM46.9656 13.0391H43.705L42.5747 20.5533H45.6179C47.154 20.5533 48.2554 20.1934 48.922 19.4737C49.5886 18.7251 49.9219 17.7463 49.9219 16.5371C49.9219 14.2051 48.9365 13.0391 46.9656 13.0391Z" stroke="#FFA200" stroke-width="4" mask="url(#path-1-outside-1_103_42)"/>
<path d="M91.9064 38C87.7908 38 84.9504 37.0499 83.3853 35.1498C82.3129 33.8255 81.7768 32.0117 81.7768 29.7085C81.7768 28.6433 81.8927 27.4773 82.1245 26.2105L83.6462 17.5736C85.0084 9.85785 89.7616 6 97.9059 6C101.268 6 103.819 6.71975 105.557 8.15924C107.296 9.56995 108.166 11.5133 108.166 13.9892C108.166 14.9969 108.021 16.0189 107.731 17.0553C107.47 18.0918 107.21 18.8691 106.949 19.3873L106.514 20.1646H98.8189C99.5725 19.1282 99.9492 17.9334 99.9492 16.5803C99.9492 13.9892 98.8624 12.6937 96.6886 12.6937C93.7613 12.6937 92.0078 14.3779 91.4282 17.7463L89.95 26.0378C89.8051 26.8151 89.7326 27.578 89.7326 28.3266C89.7326 30.3131 90.9065 31.3063 93.2541 31.3063C95.6307 31.3063 97.1524 30.126 97.819 27.7652H94.254L95.1235 22.9717H106.644L105.949 26.6856L105.731 27.9379C104.514 34.646 99.9058 38 91.9064 38Z" stroke="#FFA200" stroke-width="4" mask="url(#path-1-outside-1_103_42)"/>
<path d="M120.14 38C116.024 38 113.184 37.0499 111.618 35.1498C110.546 33.8255 110.01 32.0117 110.01 29.7085C110.01 28.6433 110.126 27.4773 110.358 26.2105L111.879 17.5736C113.242 9.85785 117.995 6 126.139 6C129.501 6 132.052 6.71975 133.791 8.15924C135.53 9.56995 136.399 11.5133 136.399 13.9892C136.399 14.9969 136.254 16.0189 135.964 17.0553C135.704 18.0918 135.443 18.8691 135.182 19.3873L134.747 20.1646H127.052C127.806 19.1282 128.182 17.9334 128.182 16.5803C128.182 13.9892 127.096 12.6937 124.922 12.6937C121.994 12.6937 120.241 14.3779 119.661 17.7463L118.183 26.0378C118.038 26.8151 117.966 27.578 117.966 28.3266C117.966 30.3131 119.14 31.3063 121.487 31.3063C123.864 31.3063 125.386 30.126 126.052 27.7652H122.487L123.357 22.9717H134.878L134.182 26.6856L133.965 27.9379C132.747 34.646 128.139 38 120.14 38Z" stroke="#FFA200" stroke-width="4" mask="url(#path-1-outside-1_103_42)"/>
<path d="M159.285 37.3954H137.461L142.982 6.3023H164.806L163.589 13.0391H149.59L148.59 18.8691H160.154L158.937 25.6059H147.373L146.503 30.6586H160.502L159.285 37.3954Z" stroke="#FFA200" stroke-width="4" mask="url(#path-1-outside-1_103_42)"/>
<path d="M182.422 6.3023C185.726 6.3023 188.073 7.02204 189.465 8.46154C190.508 9.55556 191.03 10.9375 191.03 12.6073C191.03 13.1831 190.972 13.7877 190.856 14.4211L190.247 17.7895C189.899 19.6608 189.291 21.1723 188.421 22.3239C187.581 23.4755 186.639 24.296 185.595 24.7854L189.552 37.3954H180.77L177.118 25.7787H174.422L172.64 37.3954H164.293L169.814 6.3023H182.422ZM179.683 13.0391H176.422L175.292 20.5533H178.335C179.871 20.5533 180.973 20.1934 181.639 19.4737C182.306 18.7251 182.639 17.7463 182.639 16.5371C182.639 14.2051 181.654 13.0391 179.683 13.0391Z" stroke="#FFA200" stroke-width="4" mask="url(#path-1-outside-1_103_42)"/>
<path d="M203.735 38C199.62 38 196.779 37.0499 195.214 35.1498C194.142 33.8255 193.606 32.0117 193.606 29.7085C193.606 28.6433 193.722 27.4773 193.953 26.2105L195.475 17.5736C196.837 9.85785 201.59 6 209.735 6C213.097 6 215.647 6.71975 217.386 8.15924C219.125 9.56995 219.995 11.5133 219.995 13.9892C219.995 14.9969 219.85 16.0189 219.56 17.0553C219.299 18.0918 219.038 18.8691 218.778 19.3873L218.343 20.1646H210.648C211.401 19.1282 211.778 17.9334 211.778 16.5803C211.778 13.9892 210.691 12.6937 208.517 12.6937C205.59 12.6937 203.837 14.3779 203.257 17.7463L201.779 26.0378C201.634 26.8151 201.561 27.578 201.561 28.3266C201.561 30.3131 202.735 31.3063 205.083 31.3063C207.46 31.3063 208.981 30.126 209.648 27.7652H206.083L206.952 22.9717H218.473L217.778 26.6856L217.56 27.9379C216.343 34.646 211.735 38 203.735 38Z" stroke="#FFA200" stroke-width="4" mask="url(#path-1-outside-1_103_42)"/>
<path d="M239.185 6.3023C242.489 6.3023 244.837 7.02204 246.228 8.46154C247.272 9.55556 247.793 10.9375 247.793 12.6073C247.793 13.1831 247.735 13.7877 247.619 14.4211L247.011 17.7895C246.663 19.6608 246.054 21.1723 245.185 22.3239C244.344 23.4755 243.402 24.296 242.359 24.7854L246.315 37.3954H237.533L233.881 25.7787H231.186L229.403 37.3954H221.056L226.578 6.3023H239.185ZM236.446 13.0391H233.186L232.055 20.5533H235.099C236.635 20.5533 237.736 20.1934 238.403 19.4737C239.069 18.7251 239.403 17.7463 239.403 16.5371C239.403 14.2051 238.417 13.0391 236.446 13.0391Z" stroke="#FFA200" stroke-width="4" mask="url(#path-1-outside-1_103_42)"/>
<path d="M265.064 37.3954L265.324 30.6154H258.064L255.934 37.3954H247.63L258.803 6.3023H273.15L273.324 37.3954H265.064ZM263.281 13.8597L259.847 24.8286H265.542L266.02 13.8597H263.281Z" stroke="#FFA200" stroke-width="4" mask="url(#path-1-outside-1_103_42)"/>
<path d="M291.132 6.3023L295.784 21.2011L305.783 6.3023H314L308.479 37.3954H300.61L303.74 19.8624L297.045 30.3131H291.35L288.393 19.8624L285.263 37.3954H277.438L282.959 6.3023H291.132Z" stroke="#FFA200" stroke-width="4" mask="url(#path-1-outside-1_103_42)"/>
<path d="M61.0981 42.458C61.3 41.7863 62.8139 37.9627 64.4793 33.9324C66.0942 29.8504 67.4567 26.3885 67.4567 26.1818C67.4567 25.9234 65.4886 25.7684 63.1167 25.7684C59.1804 25.7684 58.7767 25.6651 59.0795 24.89C59.2309 24.3733 61.2495 18.9996 63.5709 13.0058L67.7091 2H74.9256C78.8619 2 82.0916 2.10334 82.0916 2.20668C82.0916 2.31002 80.3758 5.6686 78.3067 9.64723C76.2377 13.6259 74.5219 16.9844 74.5219 17.1395C74.5219 17.3461 76.4395 17.5528 78.7609 17.6045L83 17.7595L74.1181 28.1453C60.3411 44.1631 60.7449 43.6981 61.0981 42.458ZM74.4209 23.2366L77.146 20.0847H71.4939V18.4312C71.4939 17.4495 72.6546 14.5043 74.5219 10.939C76.1872 7.68375 77.5498 4.89355 77.5498 4.79021C77.5498 4.63519 75.733 4.58352 73.4621 4.68687L69.3744 4.84188L65.9932 13.8842L62.5616 22.9265L69.98 23.2366V25.3034C69.98 26.4401 69.7277 27.8869 69.4753 28.507C68.8698 29.6954 69.3744 29.1787 74.4209 23.2366Z" stroke="#FFA200" stroke-width="4" mask="url(#path-1-outside-1_103_42)"/>
<path d="M62.9149 39.6161C62.9149 39.4611 64.1765 36.2575 65.6905 32.4856C67.2044 28.7136 68.466 25.4584 68.466 25.2C68.466 24.9417 66.5484 24.735 64.1765 24.735C61.8046 24.735 59.887 24.6317 59.887 24.5283C59.887 24.425 61.7037 19.568 63.8737 13.8325L67.9109 3.29176L74.2191 3.13675C77.7012 3.08508 80.5777 3.13675 80.5777 3.29176C80.5777 3.49844 78.8619 6.96037 76.7423 11.0423L72.9574 18.4829L81.1328 18.7929L72.7556 28.6103C63.5205 39.4094 62.9149 40.0811 62.9149 39.6161Z" stroke="#FFA200" stroke-width="4" mask="url(#path-1-outside-1_103_42)"/>
</svg>
