<svg width="31" height="45" viewBox="0 0 31 45" fill="none" xmlns="http://www.w3.org/2000/svg">
<path d="M3.14043 42.1702L3.13836 42.1771L3.13638 42.184C3.13142 42.2015 3.12514 42.2228 3.118 42.2472C3.08426 42.3622 3.03127 42.5428 3.00676 42.6796C3.00644 42.6814 3.00605 42.6836 3.00559 42.686C2.99459 42.7455 2.94726 43.0016 3.03619 43.2773C3.09613 43.4631 3.24507 43.7363 3.56897 43.8946C3.87074 44.042 4.14991 44.0025 4.29118 43.9668C4.5411 43.9036 4.72845 43.7592 4.79876 43.7048C4.90235 43.6245 5.01162 43.5258 5.12344 43.4182C5.34924 43.2008 5.65108 42.883 6.04849 42.4468C7.61875 40.7233 10.914 36.8921 17.6264 29.0878L17.8763 28.7973L17.8781 28.7952L26.76 18.4094L28.1057 16.8358L26.0365 16.7602L21.7975 16.6052L21.7903 16.6049L21.7832 16.6047C20.676 16.5801 19.674 16.5197 18.9459 16.4431C19.1079 16.1162 19.3046 15.7247 19.5303 15.2794C20.2156 13.9276 21.16 12.0968 22.1939 10.1086C23.2292 8.11794 24.1768 6.28092 24.8661 4.9276C25.2105 4.25149 25.492 3.69316 25.688 3.29582C25.7856 3.09807 25.8647 2.93476 25.9205 2.81481C25.9478 2.75613 25.9737 2.69889 25.9944 2.6495C26.0042 2.62612 26.018 2.59211 26.031 2.5546C26.0374 2.53641 26.0479 2.50489 26.058 2.46614L26.0586 2.46417C26.0645 2.44142 26.0916 2.33834 26.0916 2.20668C26.0916 1.85567 25.9159 1.61772 25.8067 1.50523C25.7 1.39535 25.5929 1.33529 25.542 1.30897C25.4367 1.25442 25.3425 1.22903 25.3073 1.21983C25.2211 1.19731 25.1349 1.18453 25.0765 1.17679C24.9473 1.15968 24.7796 1.14548 24.5918 1.13299C24.2094 1.10757 23.6686 1.08454 23.0145 1.06503C21.703 1.02592 19.9012 1 17.9256 1H10.7091H10.0167L9.77304 1.64806L5.63663 12.6493C3.38371 18.4663 1.3849 23.7783 1.1351 24.5595C1.05586 24.765 0.880396 25.2704 1.12696 25.7858C1.40118 26.359 1.98109 26.5274 2.29262 26.5963C2.66515 26.6786 3.15309 26.7175 3.74558 26.7395C4.35248 26.762 5.13204 26.7684 6.11673 26.7684C7.28608 26.7684 8.33863 26.8068 9.08644 26.8742C9.1119 26.8765 9.13685 26.8788 9.1613 26.8811C9.02306 27.2504 8.84731 27.7099 8.64101 28.2429C8.10069 29.6388 7.35878 31.5186 6.55218 33.5575C4.89973 37.5567 3.36055 41.4377 3.14043 42.1702ZM9.47686 25.9928C9.4766 25.9937 9.47632 25.9947 9.47602 25.9958C9.48168 25.9695 9.48454 25.9648 9.47686 25.9928ZM3.57416 42.1235C3.55255 42.1403 3.55405 42.1365 3.57502 42.1229C3.57473 42.1231 3.57444 42.1233 3.57416 42.1235Z" fill="#FFD62F" stroke="#FFA200" stroke-width="2"/>
</svg>
